<svg xmlns="http://www.w3.org/2000/svg" width="980" height="548" viewBox="0 0 980 548">
<rect width="100%" height="100%" fill="#fcfbf7"/>
<text x="28" y="36" font-size="28" font-family="Georgia, serif" fill="#1f2933">Raw good/bad Fails, Targeted Evaluative Axes Work</text>
<text x="28" y="64" font-size="15" font-family="Verdana, sans-serif" fill="#52606d">All scores are on the exact same 50-case length-balanced conflict battery.</text>
<line x1="300.0" y1="78" x2="300.0" y2="514" stroke="#e6e8eb" stroke-width="1"/>
<text x="300.0" y="536" text-anchor="middle" font-size="12" font-family="Verdana, sans-serif" fill="#7b8794">0%</text>
<line x1="412.0" y1="78" x2="412.0" y2="514" stroke="#e6e8eb" stroke-width="1"/>
<text x="412.0" y="536" text-anchor="middle" font-size="12" font-family="Verdana, sans-serif" fill="#7b8794">20%</text>
<line x1="524.0" y1="78" x2="524.0" y2="514" stroke="#e6e8eb" stroke-width="1"/>
<text x="524.0" y="536" text-anchor="middle" font-size="12" font-family="Verdana, sans-serif" fill="#7b8794">40%</text>
<line x1="636.0" y1="78" x2="636.0" y2="514" stroke="#e6e8eb" stroke-width="1"/>
<text x="636.0" y="536" text-anchor="middle" font-size="12" font-family="Verdana, sans-serif" fill="#7b8794">60%</text>
<line x1="748.0" y1="78" x2="748.0" y2="514" stroke="#e6e8eb" stroke-width="1"/>
<text x="748.0" y="536" text-anchor="middle" font-size="12" font-family="Verdana, sans-serif" fill="#7b8794">80%</text>
<line x1="860.0" y1="78" x2="860.0" y2="514" stroke="#e6e8eb" stroke-width="1"/>
<text x="860.0" y="536" text-anchor="middle" font-size="12" font-family="Verdana, sans-serif" fill="#7b8794">100%</text>
<text x="286" y="106" text-anchor="end" font-size="16" font-family="Verdana, sans-serif" fill="#102a43">Gemini raw good/bad</text>
<text x="286" y="122" text-anchor="end" font-size="11" font-family="Verdana, sans-serif" fill="#7b8794">50-case conflict battery</text>
<rect x="300" y="88" width="560" height="18" rx="5" fill="#edf2f7"/>
<rect x="300" y="88" width="145.60" height="18" rx="5" fill="#B02E0C"/>
<text x="453.60" y="102" font-size="13" font-family="Verdana, sans-serif" fill="#102a43">26.0%</text>
<text x="286" y="148" text-anchor="end" font-size="16" font-family="Verdana, sans-serif" fill="#102a43">Gemini sentence good/bad</text>
<text x="286" y="164" text-anchor="end" font-size="11" font-family="Verdana, sans-serif" fill="#7b8794">same battery</text>
<rect x="300" y="130" width="560" height="18" rx="5" fill="#edf2f7"/>
<rect x="300" y="130" width="168.00" height="18" rx="5" fill="#B02E0C"/>
<text x="476.00" y="144" font-size="13" font-family="Verdana, sans-serif" fill="#102a43">30.0%</text>
<text x="286" y="190" text-anchor="end" font-size="16" font-family="Verdana, sans-serif" fill="#102a43">Gemini best proxy (raw_useful_useless)</text>
<text x="286" y="206" text-anchor="end" font-size="11" font-family="Verdana, sans-serif" fill="#7b8794">best nearby word axis</text>
<rect x="300" y="172" width="560" height="18" rx="5" fill="#edf2f7"/>
<rect x="300" y="172" width="235.20" height="18" rx="5" fill="#355070"/>
<text x="543.20" y="186" font-size="13" font-family="Verdana, sans-serif" fill="#102a43">42.0%</text>
<text x="286" y="232" text-anchor="end" font-size="16" font-family="Verdana, sans-serif" fill="#102a43">Gemini general evaluative</text>
<text x="286" y="248" text-anchor="end" font-size="11" font-family="Verdana, sans-serif" fill="#7b8794">richer broad axis</text>
<rect x="300" y="214" width="560" height="18" rx="5" fill="#edf2f7"/>
<rect x="300" y="214" width="257.60" height="18" rx="5" fill="#355070"/>
<text x="565.60" y="228" font-size="13" font-family="Verdana, sans-serif" fill="#102a43">46.0%</text>
<text x="286" y="274" text-anchor="end" font-size="16" font-family="Verdana, sans-serif" fill="#102a43">Gemini combined targeted axes</text>
<text x="286" y="290" text-anchor="end" font-size="11" font-family="Verdana, sans-serif" fill="#7b8794">same 50 cases</text>
<rect x="300" y="256" width="560" height="18" rx="5" fill="#edf2f7"/>
<rect x="300" y="256" width="481.60" height="18" rx="5" fill="#2C6E49"/>
<text x="789.60" y="270" font-size="13" font-family="Verdana, sans-serif" fill="#102a43">86.0%</text>
<text x="286" y="316" text-anchor="end" font-size="16" font-family="Verdana, sans-serif" fill="#102a43">Gemini category-routed axis</text>
<text x="286" y="332" text-anchor="end" font-size="11" font-family="Verdana, sans-serif" fill="#7b8794">same 50 cases</text>
<rect x="300" y="298" width="560" height="18" rx="5" fill="#edf2f7"/>
<rect x="300" y="298" width="481.60" height="18" rx="5" fill="#2C6E49"/>
<text x="789.60" y="312" font-size="13" font-family="Verdana, sans-serif" fill="#102a43">86.0%</text>
<text x="286" y="358" text-anchor="end" font-size="16" font-family="Verdana, sans-serif" fill="#102a43">Gemini truthfulness axis</text>
<text x="286" y="374" text-anchor="end" font-size="11" font-family="Verdana, sans-serif" fill="#7b8794">same 50 cases</text>
<rect x="300" y="340" width="560" height="18" rx="5" fill="#edf2f7"/>
<rect x="300" y="340" width="504.00" height="18" rx="5" fill="#2C6E49"/>
<text x="812.00" y="354" font-size="13" font-family="Verdana, sans-serif" fill="#102a43">90.0%</text>
<text x="286" y="400" text-anchor="end" font-size="16" font-family="Verdana, sans-serif" fill="#102a43">Gemini harm-reduction axis</text>
<text x="286" y="416" text-anchor="end" font-size="11" font-family="Verdana, sans-serif" fill="#7b8794">same 50 cases</text>
<rect x="300" y="382" width="560" height="18" rx="5" fill="#edf2f7"/>
<rect x="300" y="382" width="526.40" height="18" rx="5" fill="#2C6E49"/>
<text x="834.40" y="396" font-size="13" font-family="Verdana, sans-serif" fill="#102a43">94.0%</text>
<text x="286" y="442" text-anchor="end" font-size="16" font-family="Verdana, sans-serif" fill="#102a43">Gemini persona-honesty axis</text>
<text x="286" y="458" text-anchor="end" font-size="11" font-family="Verdana, sans-serif" fill="#7b8794">same 50 cases</text>
<rect x="300" y="424" width="560" height="18" rx="5" fill="#edf2f7"/>
<rect x="300" y="424" width="537.60" height="18" rx="5" fill="#2C6E49"/>
<text x="845.60" y="438" font-size="13" font-family="Verdana, sans-serif" fill="#102a43">96.0%</text>
<text x="286" y="484" text-anchor="end" font-size="16" font-family="Verdana, sans-serif" fill="#102a43">Gemini anti-sycophancy axis</text>
<text x="286" y="500" text-anchor="end" font-size="11" font-family="Verdana, sans-serif" fill="#7b8794">same 50 cases</text>
<rect x="300" y="466" width="560" height="18" rx="5" fill="#edf2f7"/>
<rect x="300" y="466" width="548.80" height="18" rx="5" fill="#2C6E49"/>
<text x="856.80" y="480" font-size="13" font-family="Verdana, sans-serif" fill="#102a43">98.0%</text>
</svg>