<svg xmlns="http://www.w3.org/2000/svg" width="980" height="450" viewBox="0 0 980 450">
<rect width="100%" height="100%" fill="#fcfbf7"/>
<text x="28" y="36" font-size="28" font-family="Georgia, serif" fill="#1f2933">Process Signal Is Real But Still Below The Frozen Training Gate</text>
<text x="28" y="64" font-size="15" font-family="Verdana, sans-serif" fill="#52606d">Gemini tracks injected error and repair far better than cheap controls or cheap OSS, but the precommitted gate remains unmet.</text>
<line x1="300.0" y1="78" x2="300.0" y2="416" stroke="#e6e8eb" stroke-width="1"/>
<text x="300.0" y="438" text-anchor="middle" font-size="12" font-family="Verdana, sans-serif" fill="#7b8794">0%</text>
<line x1="412.0" y1="78" x2="412.0" y2="416" stroke="#e6e8eb" stroke-width="1"/>
<text x="412.0" y="438" text-anchor="middle" font-size="12" font-family="Verdana, sans-serif" fill="#7b8794">20%</text>
<line x1="524.0" y1="78" x2="524.0" y2="416" stroke="#e6e8eb" stroke-width="1"/>
<text x="524.0" y="438" text-anchor="middle" font-size="12" font-family="Verdana, sans-serif" fill="#7b8794">40%</text>
<line x1="636.0" y1="78" x2="636.0" y2="416" stroke="#e6e8eb" stroke-width="1"/>
<text x="636.0" y="438" text-anchor="middle" font-size="12" font-family="Verdana, sans-serif" fill="#7b8794">60%</text>
<line x1="748.0" y1="78" x2="748.0" y2="416" stroke="#e6e8eb" stroke-width="1"/>
<text x="748.0" y="438" text-anchor="middle" font-size="12" font-family="Verdana, sans-serif" fill="#7b8794">80%</text>
<line x1="860.0" y1="78" x2="860.0" y2="416" stroke="#e6e8eb" stroke-width="1"/>
<text x="860.0" y="438" text-anchor="middle" font-size="12" font-family="Verdana, sans-serif" fill="#7b8794">100%</text>
<text x="286" y="106" text-anchor="end" font-size="16" font-family="Verdana, sans-serif" fill="#102a43">Gemini combined process score</text>
<text x="286" y="122" text-anchor="end" font-size="11" font-family="Verdana, sans-serif" fill="#7b8794">dense localization score</text>
<rect x="300" y="88" width="560" height="18" rx="5" fill="#edf2f7"/>
<rect x="300" y="88" width="350.00" height="18" rx="5" fill="#2C6E49"/>
<text x="658.00" y="102" font-size="13" font-family="Verdana, sans-serif" fill="#102a43">62.5%</text>
<text x="286" y="152" text-anchor="end" font-size="16" font-family="Verdana, sans-serif" fill="#102a43">Gemini category-axis process score</text>
<text x="286" y="168" text-anchor="end" font-size="11" font-family="Verdana, sans-serif" fill="#7b8794">dense localization score</text>
<rect x="300" y="134" width="560" height="18" rx="5" fill="#edf2f7"/>
<rect x="300" y="134" width="280.00" height="18" rx="5" fill="#2C6E49"/>
<text x="588.00" y="148" font-size="13" font-family="Verdana, sans-serif" fill="#102a43">50.0%</text>
<text x="286" y="198" text-anchor="end" font-size="16" font-family="Verdana, sans-serif" fill="#102a43">BGE combined process score</text>
<text x="286" y="214" text-anchor="end" font-size="11" font-family="Verdana, sans-serif" fill="#7b8794">cheap OSS</text>
<rect x="300" y="180" width="560" height="18" rx="5" fill="#edf2f7"/>
<rect x="300" y="180" width="93.33" height="18" rx="5" fill="#8D99AE"/>
<text x="401.33" y="194" font-size="13" font-family="Verdana, sans-serif" fill="#102a43">16.7%</text>
<text x="286" y="244" text-anchor="end" font-size="16" font-family="Verdana, sans-serif" fill="#102a43">BGE category-axis process score</text>
<text x="286" y="260" text-anchor="end" font-size="11" font-family="Verdana, sans-serif" fill="#7b8794">cheap OSS</text>
<rect x="300" y="226" width="560" height="18" rx="5" fill="#edf2f7"/>
<rect x="300" y="226" width="116.67" height="18" rx="5" fill="#8D99AE"/>
<text x="424.67" y="240" font-size="13" font-family="Verdana, sans-serif" fill="#102a43">20.8%</text>
<text x="286" y="290" text-anchor="end" font-size="16" font-family="Verdana, sans-serif" fill="#102a43">Gemini sentiment control</text>
<text x="286" y="306" text-anchor="end" font-size="11" font-family="Verdana, sans-serif" fill="#7b8794">cheap baseline</text>
<rect x="300" y="272" width="560" height="18" rx="5" fill="#edf2f7"/>
<rect x="300" y="272" width="46.67" height="18" rx="5" fill="#6C757D"/>
<text x="354.67" y="286" font-size="13" font-family="Verdana, sans-serif" fill="#102a43">8.3%</text>
<text x="286" y="336" text-anchor="end" font-size="16" font-family="Verdana, sans-serif" fill="#102a43">Gemini length control</text>
<text x="286" y="352" text-anchor="end" font-size="11" font-family="Verdana, sans-serif" fill="#7b8794">cheap baseline</text>
<rect x="300" y="318" width="560" height="18" rx="5" fill="#edf2f7"/>
<rect x="300" y="318" width="0.00" height="18" rx="5" fill="#6C757D"/>
<text x="308.00" y="332" font-size="13" font-family="Verdana, sans-serif" fill="#102a43">0.0%</text>
<text x="286" y="382" text-anchor="end" font-size="16" font-family="Verdana, sans-serif" fill="#102a43">Gemini final-answer-only</text>
<text x="286" y="398" text-anchor="end" font-size="11" font-family="Verdana, sans-serif" fill="#7b8794">not process-aware</text>
<rect x="300" y="364" width="560" height="18" rx="5" fill="#edf2f7"/>
<rect x="300" y="364" width="0.00" height="18" rx="5" fill="#6C757D"/>
<text x="308.00" y="378" font-size="13" font-family="Verdana, sans-serif" fill="#102a43">0.0%</text>
</svg>