<svg xmlns="http://www.w3.org/2000/svg" width="980" height="542" viewBox="0 0 980 542">
<rect width="100%" height="100%" fill="#fcfbf7"/>
<text x="28" y="36" font-size="28" font-family="Georgia, serif" fill="#1f2933">Objective Reranking: Gemini Beats Cheap Baselines And OSS</text>
<text x="28" y="64" font-size="15" font-family="Verdana, sans-serif" fill="#52606d">Solve-rate on frozen code, math, and tool-interpretation reranking suites.</text>
<line x1="300.0" y1="78" x2="300.0" y2="508" stroke="#e6e8eb" stroke-width="1"/>
<text x="300.0" y="530" text-anchor="middle" font-size="12" font-family="Verdana, sans-serif" fill="#7b8794">0%</text>
<line x1="412.0" y1="78" x2="412.0" y2="508" stroke="#e6e8eb" stroke-width="1"/>
<text x="412.0" y="530" text-anchor="middle" font-size="12" font-family="Verdana, sans-serif" fill="#7b8794">20%</text>
<line x1="524.0" y1="78" x2="524.0" y2="508" stroke="#e6e8eb" stroke-width="1"/>
<text x="524.0" y="530" text-anchor="middle" font-size="12" font-family="Verdana, sans-serif" fill="#7b8794">40%</text>
<line x1="636.0" y1="78" x2="636.0" y2="508" stroke="#e6e8eb" stroke-width="1"/>
<text x="636.0" y="530" text-anchor="middle" font-size="12" font-family="Verdana, sans-serif" fill="#7b8794">60%</text>
<line x1="748.0" y1="78" x2="748.0" y2="508" stroke="#e6e8eb" stroke-width="1"/>
<text x="748.0" y="530" text-anchor="middle" font-size="12" font-family="Verdana, sans-serif" fill="#7b8794">80%</text>
<line x1="860.0" y1="78" x2="860.0" y2="508" stroke="#e6e8eb" stroke-width="1"/>
<text x="860.0" y="530" text-anchor="middle" font-size="12" font-family="Verdana, sans-serif" fill="#7b8794">100%</text>
<text x="286" y="106" text-anchor="end" font-size="16" font-family="Verdana, sans-serif" fill="#102a43">Code baseline</text>
<text x="286" y="122" text-anchor="end" font-size="11" font-family="Verdana, sans-serif" fill="#7b8794">best cheap baseline</text>
<rect x="300" y="88" width="560" height="18" rx="5" fill="#edf2f7"/>
<rect x="300" y="88" width="280.00" height="18" rx="5" fill="#BC6C25"/>
<text x="588.00" y="102" font-size="13" font-family="Verdana, sans-serif" fill="#102a43">50.0%</text>
<text x="286" y="152" text-anchor="end" font-size="16" font-family="Verdana, sans-serif" fill="#102a43">Code Gemini</text>
<text x="286" y="168" text-anchor="end" font-size="11" font-family="Verdana, sans-serif" fill="#7b8794">best direct method</text>
<rect x="300" y="134" width="560" height="18" rx="5" fill="#edf2f7"/>
<rect x="300" y="134" width="466.67" height="18" rx="5" fill="#2C6E49"/>
<text x="774.67" y="148" font-size="13" font-family="Verdana, sans-serif" fill="#102a43">83.3%</text>
<text x="286" y="198" text-anchor="end" font-size="16" font-family="Verdana, sans-serif" fill="#102a43">Code BGE-base</text>
<text x="286" y="214" text-anchor="end" font-size="11" font-family="Verdana, sans-serif" fill="#7b8794">cheap OSS</text>
<rect x="300" y="180" width="560" height="18" rx="5" fill="#edf2f7"/>
<rect x="300" y="180" width="280.00" height="18" rx="5" fill="#8D99AE"/>
<text x="588.00" y="194" font-size="13" font-family="Verdana, sans-serif" fill="#102a43">50.0%</text>
<text x="286" y="244" text-anchor="end" font-size="16" font-family="Verdana, sans-serif" fill="#102a43">Math baseline</text>
<text x="286" y="260" text-anchor="end" font-size="11" font-family="Verdana, sans-serif" fill="#7b8794">best cheap baseline</text>
<rect x="300" y="226" width="560" height="18" rx="5" fill="#edf2f7"/>
<rect x="300" y="226" width="280.00" height="18" rx="5" fill="#BC6C25"/>
<text x="588.00" y="240" font-size="13" font-family="Verdana, sans-serif" fill="#102a43">50.0%</text>
<text x="286" y="290" text-anchor="end" font-size="16" font-family="Verdana, sans-serif" fill="#102a43">Math Gemini</text>
<text x="286" y="306" text-anchor="end" font-size="11" font-family="Verdana, sans-serif" fill="#7b8794">best direct method</text>
<rect x="300" y="272" width="560" height="18" rx="5" fill="#edf2f7"/>
<rect x="300" y="272" width="560.00" height="18" rx="5" fill="#2C6E49"/>
<text x="858.00" y="286" font-size="13" font-family="Verdana, sans-serif" fill="#102a43">100.0%</text>
<text x="286" y="336" text-anchor="end" font-size="16" font-family="Verdana, sans-serif" fill="#102a43">Math BGE-base</text>
<text x="286" y="352" text-anchor="end" font-size="11" font-family="Verdana, sans-serif" fill="#7b8794">cheap OSS</text>
<rect x="300" y="318" width="560" height="18" rx="5" fill="#edf2f7"/>
<rect x="300" y="318" width="350.00" height="18" rx="5" fill="#8D99AE"/>
<text x="658.00" y="332" font-size="13" font-family="Verdana, sans-serif" fill="#102a43">62.5%</text>
<text x="286" y="382" text-anchor="end" font-size="16" font-family="Verdana, sans-serif" fill="#102a43">Tool baseline</text>
<text x="286" y="398" text-anchor="end" font-size="11" font-family="Verdana, sans-serif" fill="#7b8794">best cheap baseline</text>
<rect x="300" y="364" width="560" height="18" rx="5" fill="#edf2f7"/>
<rect x="300" y="364" width="210.00" height="18" rx="5" fill="#BC6C25"/>
<text x="518.00" y="378" font-size="13" font-family="Verdana, sans-serif" fill="#102a43">37.5%</text>
<text x="286" y="428" text-anchor="end" font-size="16" font-family="Verdana, sans-serif" fill="#102a43">Tool Gemini</text>
<text x="286" y="444" text-anchor="end" font-size="11" font-family="Verdana, sans-serif" fill="#7b8794">best direct method</text>
<rect x="300" y="410" width="560" height="18" rx="5" fill="#edf2f7"/>
<rect x="300" y="410" width="490.00" height="18" rx="5" fill="#2C6E49"/>
<text x="798.00" y="424" font-size="13" font-family="Verdana, sans-serif" fill="#102a43">87.5%</text>
<text x="286" y="474" text-anchor="end" font-size="16" font-family="Verdana, sans-serif" fill="#102a43">Tool BGE-base</text>
<text x="286" y="490" text-anchor="end" font-size="11" font-family="Verdana, sans-serif" fill="#7b8794">cheap OSS</text>
<rect x="300" y="456" width="560" height="18" rx="5" fill="#edf2f7"/>
<rect x="300" y="456" width="280.00" height="18" rx="5" fill="#8D99AE"/>
<text x="588.00" y="470" font-size="13" font-family="Verdana, sans-serif" fill="#102a43">50.0%</text>
</svg>